<svg
id="icon_password"
data-name="icon password"
xmlns="http://www.w3.org/2000/svg"
width="29"
height="29"
viewBox="0 0 29 29"
>
<g id="icons_password" data-name="icons password" transform="translate(6 4)">
    <path
        id="icons8_password_1"
        d="M8.051,0A5.646,5.646,0,0,0,2.415,5.636V8.051H0V20.932H16.1V8.051H13.686V5.636A5.646,5.646,0,0,0,8.051,0Zm0,1.61a4.013,4.013,0,0,1,4.025,4.025V8.051H4.025V5.636A4.013,4.013,0,0,1,8.051,1.61ZM1.61,9.661H14.491v9.661H1.61Zm3.22,4.025a.805.805,0,1,0,.805.805A.807.807,0,0,0,4.83,13.686Zm3.22,0a.805.805,0,1,0,.805.805A.807.807,0,0,0,8.051,13.686Zm3.22,0a.805.805,0,1,0,.805.805A.807.807,0,0,0,11.271,13.686Z"
        transform="translate(0 0)"
        fill="#5473ff"
    />
</g>
<rect
    id="Rectangle_17516"
    data-name="Rectangle 17516"
    width="29"
    height="29"
    fill="#fff"
    opacity="0"
/>
</svg>