<svg xmlns="http://www.w3.org/2000/svg" width="60.129" height="60.129" viewBox="0 0 60.129 60.129">
  <path id="Path_24070" data-name="Path 24070" d="M47.812,55.4H7.727V15.316H33.5V9.59H7.727A5.743,5.743,0,0,0,2,15.316V55.4a5.743,5.743,0,0,0,5.727,5.727H47.812A5.743,5.743,0,0,0,53.539,55.4V29.633H47.812Zm-22.3-9.077L19.9,39.568,12.021,49.676h31.5L33.381,36.19ZM53.539,9.59V1H47.812V9.59h-8.59c.029.029,0,5.727,0,5.727h8.59v8.561c.029.029,5.727,0,5.727,0V15.316h8.59V9.59Z" transform="translate(-2 -1)" fill="#11a1fd"/>
</svg>
