
<svg width="17" height="19" viewBox="0 0 17 19" fill="none" xmlns="http://www.w3.org/2000/svg">
<path d="M8.49984 9.50016C10.686 9.50016 12.4582 7.72796 12.4582 5.54183C12.4582 3.3557 10.686 1.5835 8.49984 1.5835C6.31371 1.5835 4.5415 3.3557 4.5415 5.54183C4.5415 7.72796 6.31371 9.50016 8.49984 9.50016Z" stroke="#039A5B" stroke-width="2"/>
<path d="M12.4581 11.0835H12.7367C13.3155 11.0837 13.8743 11.2952 14.3081 11.6783C14.7419 12.0614 15.021 12.5897 15.0927 13.164L15.4023 15.6372C15.4301 15.86 15.4102 16.0861 15.344 16.3007C15.2777 16.5152 15.1666 16.7132 15.018 16.8815C14.8694 17.0498 14.6867 17.1846 14.482 17.2769C14.2773 17.3692 14.0553 17.4169 13.8308 17.4168H3.16864C2.94411 17.4169 2.72213 17.3692 2.51745 17.2769C2.31277 17.1846 2.13005 17.0498 1.98144 16.8815C1.83282 16.7132 1.7217 16.5152 1.65545 16.3007C1.5892 16.0861 1.56934 15.86 1.59718 15.6372L1.90593 13.164C1.97773 12.5894 2.25697 12.0609 2.69113 11.6777C3.12529 11.2946 3.68447 11.0833 4.26351 11.0835H4.54139" stroke="#039A5B" stroke-width="2" stroke-linecap="round" stroke-linejoin="round"/>
</svg>
