<svg width="35" height="35" viewBox="0 0 35 35" fill="none" xmlns="http://www.w3.org/2000/svg">
<path d="M27.7083 4.375H7.29167C5.68084 4.375 4.375 5.68084 4.375 7.29167V27.7083C4.375 29.3192 5.68084 30.625 7.29167 30.625H27.7083C29.3192 30.625 30.625 29.3192 30.625 27.7083V7.29167C30.625 5.68084 29.3192 4.375 27.7083 4.375Z" stroke="black" stroke-width="2" stroke-linecap="round" stroke-linejoin="round"/>
<path d="M12.3955 14.583C13.6036 14.583 14.583 13.6036 14.583 12.3955C14.583 11.1874 13.6036 10.208 12.3955 10.208C11.1874 10.208 10.208 11.1874 10.208 12.3955C10.208 13.6036 11.1874 14.583 12.3955 14.583Z" stroke="black" stroke-width="2" stroke-linecap="round" stroke-linejoin="round"/>
<path d="M30.6253 21.8747L23.3337 14.583L7.29199 30.6247" stroke="black" stroke-width="2" stroke-linecap="round" stroke-linejoin="round"/>
</svg>
