<svg width="17" height="17" viewBox="0 0 17 17" fill="none" xmlns="http://www.w3.org/2000/svg">
<path fill-rule="evenodd" clip-rule="evenodd" d="M2.66667 2C2.29848 2 2 2.29848 2 2.66667V14.3333C2 14.7015 2.29848 15 2.66667 15H14.3333C14.7015 15 15 14.7015 15 14.3333V2.66667C15 2.29848 14.7015 2 14.3333 2H2.66667ZM0 2.66667C0 1.19391 1.19391 0 2.66667 0H14.3333C15.8061 0 17 1.19391 17 2.66667V14.3333C17 15.8061 15.8061 17 14.3333 17H2.66667C1.19391 17 0 15.8061 0 14.3333V2.66667Z" fill="black"/>
<path fill-rule="evenodd" clip-rule="evenodd" d="M5.58398 5.33301C5.44591 5.33301 5.33398 5.44494 5.33398 5.58301C5.33398 5.72108 5.44591 5.83301 5.58398 5.83301C5.72206 5.83301 5.83398 5.72108 5.83398 5.58301C5.83398 5.44494 5.72206 5.33301 5.58398 5.33301ZM3.33398 5.58301C3.33398 4.34037 4.34134 3.33301 5.58398 3.33301C6.82663 3.33301 7.83398 4.34037 7.83398 5.58301C7.83398 6.82565 6.82663 7.83301 5.58398 7.83301C4.34134 7.83301 3.33398 6.82565 3.33398 5.58301Z" fill="black"/>
<path fill-rule="evenodd" clip-rule="evenodd" d="M11.1256 6.1259C11.5161 5.73538 12.1493 5.73538 12.5398 6.1259L16.7065 10.2926C17.097 10.6831 17.097 11.3163 16.7065 11.7068C16.3159 12.0973 15.6828 12.0973 15.2922 11.7068L11.8327 8.24722L3.37312 16.7068C2.9826 17.0973 2.34943 17.0973 1.95891 16.7068C1.56838 16.3163 1.56838 15.6831 1.95891 15.2926L11.1256 6.1259Z" fill="black"/>
</svg>
