<svg width="70" height="76" viewBox="0 0 70 76" fill="none" xmlns="http://www.w3.org/2000/svg">
<g opacity="0.5">
<path d="M61.5812 8.36719H7.6977C6.67693 8.36719 5.69796 8.80791 4.97617 9.59241C4.25438 10.3769 3.84888 11.4409 3.84888 12.5503V62.7483C3.84888 63.8577 4.25438 64.9217 4.97617 65.7062C5.69796 66.4907 6.67693 66.9314 7.6977 66.9314H61.5812C62.602 66.9314 63.5809 66.4907 64.3027 65.7062C65.0245 64.9217 65.43 63.8577 65.43 62.7483V12.5503C65.43 11.4409 65.0245 10.3769 64.3027 9.59241C63.5809 8.80791 62.602 8.36719 61.5812 8.36719ZM7.6977 62.7483V12.5503H61.5812V62.7483H7.6977Z" fill="black"/>
<path d="M17.1658 29.2819C18.3076 29.2819 19.4238 28.9139 20.3732 28.2244C21.3226 27.5349 22.0626 26.555 22.4996 25.4084C22.9365 24.2618 23.0509 23.0002 22.8281 21.783C22.6053 20.5658 22.0555 19.4478 21.2481 18.5703C20.4407 17.6927 19.412 17.0951 18.2921 16.853C17.1722 16.6109 16.0114 16.7351 14.9565 17.2101C13.9016 17.685 12.9999 18.4892 12.3655 19.5211C11.7312 20.553 11.3926 21.7661 11.3926 23.0072C11.3926 24.6713 12.0008 26.2673 13.0835 27.4441C14.1662 28.6208 15.6347 29.2819 17.1658 29.2819ZM17.1658 19.6606C17.7756 19.6565 18.3728 19.8492 18.8817 20.2144C19.3905 20.5796 19.7882 21.1008 20.0242 21.7119C20.2602 22.3231 20.3239 22.9966 20.2073 23.6471C20.0907 24.2977 19.7989 24.8959 19.3691 25.366C18.9393 25.8361 18.3907 26.157 17.7929 26.2878C17.1951 26.4186 16.575 26.3536 16.0112 26.1009C15.4475 25.8482 14.9655 25.4193 14.6263 24.8686C14.2871 24.3178 14.106 23.6699 14.106 23.0072C14.111 22.1269 14.435 21.2842 15.0078 20.6617C15.5805 20.0392 16.3559 19.687 17.1658 19.6816V19.6606Z" fill="black"/>
<path d="M43.8381 32.1473L33.4463 43.4418L25.7487 35.0755C25.3881 34.6859 24.9004 34.4673 24.392 34.4673C23.8836 34.4673 23.3958 34.6859 23.0353 35.0755L11.3926 47.8969V53.8161L24.4593 39.6142L30.7906 46.3909L23.5741 54.2344H28.8662L45.1275 36.5605L57.7324 50.1976V44.2994L46.5516 32.1473C46.191 31.7577 45.7032 31.5391 45.1948 31.5391C44.6864 31.5391 44.1987 31.7577 43.8381 32.1473Z" fill="black"/>
</g>
</svg>
