<svg xmlns="http://www.w3.org/2000/svg" width="29" height="29" viewBox="0 0 29 29"><defs><style>.a{fill:#fff;opacity:0;}.b{fill:#f34949;}</style></defs><rect class="a" width="29" height="29"/><path class="b" d="M21.032,10.607,20.7,20.55a3.275,3.275,0,0,1-3.285,3.168H11.177a3.275,3.275,0,0,1-3.285-3.164l-.328-9.946a.822.822,0,0,1,1.642-.054L9.535,20.5a1.642,1.642,0,0,0,1.642,1.579h6.241a1.642,1.642,0,0,0,1.642-1.583l.328-9.942a.822.822,0,0,1,1.642.054ZM22.119,7.3a.821.821,0,0,1-.821.821H7.3a.821.821,0,1,1,0-1.642H9.845a1.048,1.048,0,0,0,1.045-.943,2.456,2.456,0,0,1,2.451-2.212h1.914a2.456,2.456,0,0,1,2.451,2.212,1.048,1.048,0,0,0,1.045.943H21.3a.821.821,0,0,1,.821.821Zm-9.8-.821h3.965a2.71,2.71,0,0,1-.209-.775.821.821,0,0,0-.816-.739H13.342a.821.821,0,0,0-.816.739,2.71,2.71,0,0,1-.21.775Zm.827,12.443V11.927a.821.821,0,0,0-1.642,0v7a.821.821,0,0,0,1.642,0Zm3.953,0V11.927a.821.821,0,0,0-1.642,0v7a.821.821,0,0,0,1.642,0Z" transform="translate(0.32 0.178)"/></svg>