<svg width="28" height="27" viewBox="0 0 28 27" fill="none" xmlns="http://www.w3.org/2000/svg">
<path d="M0 4C0 1.79086 1.79086 0 4 0H24C26.2091 0 28 1.79086 28 4V23C28 25.2091 26.2091 27 24 27H4C1.79086 27 0 25.2091 0 23V4Z" fill="#B61E42"/>
<path fill-rule="evenodd" clip-rule="evenodd" d="M20.7559 9.24408C21.0814 9.56951 21.0814 10.0972 20.7559 10.4226L11.5893 19.5893C11.2638 19.9147 10.7362 19.9147 10.4107 19.5893L6.24408 15.4226C5.91864 15.0972 5.91864 14.5695 6.24408 14.2441C6.56951 13.9186 7.09715 13.9186 7.42259 14.2441L11 17.8215L19.5774 9.24408C19.9028 8.91864 20.4305 8.91864 20.7559 9.24408Z" fill="white"/>
</svg>
